<svg xmlns="http://www.w3.org/2000/svg" viewBox="0 0 167 167"><defs><style>.cls-1{fill:#00a0d6;}.cls-2{fill:#e34b5f;}.cls-3{fill:#97baa6;}.cls-4{fill:#e7ce9c;}</style></defs><title>Fichier 11</title><g id="Calque_2" data-name="Calque 2"><g id="Calque_1-2" data-name="Calque 1"><path class="cls-1" d="M12.37,27.83,0,40.2H0A61.23,61.23,0,0,1,0,126.8H0l12.37,12.37L68,83.5Z"/><path class="cls-2" d="M27.83,154.63,40.2,167h0a61.23,61.23,0,0,1,86.59,0h0l12.37-12.37L83.5,99Z"/><path class="cls-3" d="M154.63,139.17,167,126.8h0a61.23,61.23,0,0,1,0-86.59h0L154.63,27.83,99,83.5Z"/><path class="cls-4" d="M139.17,12.37,126.8,0h0A61.23,61.23,0,0,1,40.2,0h0L27.83,12.37,83.5,68Z"/></g></g></svg>